<svg xmlns="http://www.w3.org/2000/svg" viewBox="0 0 64 64" width="64" height="64">
  <!-- Background circle -->
  <circle cx="32" cy="32" r="32" fill="#0a0a0f"/>

  <!-- Gradient definition -->
  <defs>
    <linearGradient id="grad" x1="0%" y1="0%" x2="100%" y2="100%">
      <stop offset="0%" style="stop-color:#6c63ff"/>
      <stop offset="100%" style="stop-color:#00d9ff"/>
    </linearGradient>
  </defs>

  <!-- Brain outline (simplified) -->
  <path d="M20 26 C20 18 28 14 32 14 C36 14 44 18 44 26 C47 26 50 29 50 33 C50 37 47 40 44 40 L44 46 C44 47.1 43.1 48 42 48 L22 48 C20.9 48 20 47.1 20 46 L20 40 C17 40 14 37 14 33 C14 29 17 26 20 26Z" fill="none" stroke="url(#grad)" stroke-width="2.5" stroke-linejoin="round"/>

  <!-- Center divider line -->
  <line x1="32" y1="16" x2="32" y2="48" stroke="url(#grad)" stroke-width="1.5" stroke-dasharray="2,2" opacity="0.5"/>

  <!-- Left brain squiggles -->
  <path d="M22 28 Q19 30 22 32 Q19 34 22 36" fill="none" stroke="url(#grad)" stroke-width="1.8" stroke-linecap="round"/>
  
  <!-- Right brain squiggles -->
  <path d="M42 28 Q45 30 42 32 Q45 34 42 36" fill="none" stroke="url(#grad)" stroke-width="1.8" stroke-linecap="round"/>

  <!-- IQ Text -->
  <text x="32" y="37" text-anchor="middle" font-family="Arial Black, sans-serif" font-size="11" font-weight="900" fill="url(#grad)" letter-spacing="1">IQ</text>
</svg>
